<?xml version="1.0" standalone="no"?>
<!DOCTYPE svg PUBLIC "-//W3C//DTD SVG 20010904//EN"
 "http://www.w3.org/TR/2001/REC-SVG-20010904/DTD/svg10.dtd">
<svg version="1.0" xmlns="http://www.w3.org/2000/svg"
 width="1280.000000pt" height="808.000000pt" viewBox="0 0 1280.000000 808.000000"
 preserveAspectRatio="xMidYMid meet">
<g transform="translate(0.000000,808.000000) scale(0.100000,-0.100000)"
fill="#000000" stroke="none">
<path d="M1413 8064 c-3 -9 5 -37 17 -64 20 -43 21 -52 10 -80 -8 -19 -11 -56
-8 -100 3 -39 2 -70 -2 -70 -3 0 -19 19 -34 42 -26 39 -28 68 -6 68 5 0 10 7
10 15 0 25 -20 17 -38 -15 -22 -38 -39 -38 -144 2 -100 38 -120 50 -175 101
-22 22 -45 37 -50 34 -18 -11 -35 -114 -23 -136 6 -12 10 -62 9 -113 -1 -94 6
-143 23 -165 13 -17 3 -43 -17 -43 -21 0 -19 -40 2 -55 14 -11 15 -17 6 -38
-7 -14 -21 -28 -32 -32 -23 -7 -27 -26 -10 -56 8 -16 7 -25 -4 -37 -8 -9 -29
-62 -47 -117 -18 -55 -43 -120 -55 -145 -13 -25 -37 -85 -54 -135 -52 -145
-118 -282 -199 -408 l-76 -119 -2 -146 c-1 -81 -7 -160 -13 -175 -6 -16 -11
-50 -11 -77 0 -63 -57 -190 -109 -245 -21 -22 -44 -57 -51 -77 -10 -35 -9 -43
21 -104 39 -79 50 -173 26 -220 -8 -16 -18 -59 -21 -95 -7 -65 -6 -68 40 -159
38 -73 48 -106 53 -161 6 -60 11 -73 41 -104 34 -35 34 -36 22 -80 -20 -75
-15 -154 11 -198 13 -21 34 -44 48 -50 39 -20 38 -75 -1 -110 -36 -33 -41 -82
-10 -118 10 -13 34 -66 51 -118 17 -51 49 -124 70 -161 22 -37 39 -72 39 -79
0 -6 5 -20 12 -31 10 -16 8 -35 -9 -102 -20 -76 -21 -84 -6 -100 9 -10 32 -20
52 -24 20 -4 58 -17 84 -30 27 -13 56 -24 66 -24 29 0 59 -29 93 -90 25 -47
41 -63 70 -75 21 -8 47 -15 58 -15 23 0 43 -34 42 -72 -1 -34 32 -46 83 -31
30 10 36 8 58 -16 13 -14 36 -47 50 -73 23 -40 27 -58 27 -130 0 -52 5 -90 13
-100 11 -15 221 -48 491 -78 49 -5 91 -12 94 -15 4 -3 1 -15 -6 -25 -7 -11
-12 -24 -12 -29 0 -6 57 -42 128 -82 70 -40 172 -100 227 -134 55 -34 192
-116 305 -182 238 -139 228 -136 595 -178 121 -13 243 -27 272 -31 58 -7 53
-13 68 79 3 21 12 40 20 43 7 3 104 -3 215 -14 219 -22 230 -26 250 -88 7 -20
24 -40 46 -53 19 -11 37 -29 41 -38 11 -31 115 -144 147 -160 40 -20 86 -63
86 -80 0 -8 11 -36 25 -63 18 -35 25 -65 25 -105 0 -35 7 -69 19 -93 25 -48
105 -124 157 -151 23 -11 44 -27 47 -35 3 -7 36 -28 74 -46 l68 -32 34 38 c18
22 46 66 61 99 31 69 38 76 104 100 40 15 52 16 68 6 12 -7 65 -19 120 -26
l98 -13 80 -83 c43 -46 85 -97 93 -114 24 -50 97 -239 97 -252 0 -6 14 -21 30
-33 17 -12 40 -40 52 -63 29 -59 53 -88 96 -117 39 -27 39 -29 42 -159 1 -23
11 -46 31 -68 16 -19 29 -43 29 -54 0 -53 28 -89 92 -119 35 -17 72 -30 83
-30 11 0 37 -11 57 -25 26 -17 55 -27 93 -30 55 -4 85 -15 136 -48 25 -17 27
-17 50 2 20 16 22 22 12 42 -18 37 -57 220 -55 257 1 18 13 55 27 82 28 55 34
146 13 169 -11 10 -9 15 6 27 11 8 27 14 37 14 9 0 29 16 43 35 15 19 33 35
41 35 8 0 52 24 97 54 46 29 126 74 179 100 61 30 120 68 166 108 168 148 199
167 341 212 115 36 205 35 326 -3 103 -33 135 -37 189 -26 33 6 36 9 21 20
-10 7 -15 19 -11 28 5 13 18 16 66 13 62 -3 86 -14 96 -46 3 -10 19 -22 35
-25 35 -8 45 -20 45 -55 0 -19 10 -29 45 -47 59 -29 94 -29 122 0 51 51 90 52
100 2 3 -19 4 -19 26 3 12 12 22 34 22 51 0 16 7 34 15 41 18 15 45 6 45 -14
0 -8 14 -17 33 -21 17 -4 51 -18 74 -31 48 -28 75 -30 94 -8 11 13 8 19 -17
39 -16 14 -45 27 -64 30 -89 15 -112 54 -55 95 41 30 49 48 36 84 -14 34 -27
33 -46 -4 -16 -31 -22 -34 -49 -24 -25 10 -19 32 28 98 42 59 47 62 102 74 37
7 92 9 146 5 l87 -6 21 47 c25 59 45 58 78 -2 19 -34 21 -46 12 -57 -18 -22
-5 -19 118 20 140 45 245 51 336 17 81 -30 183 -92 196 -120 7 -16 16 -22 26
-18 9 3 31 6 49 6 23 0 48 11 78 34 25 19 53 36 63 38 12 2 20 13 22 30 3 22
10 29 39 34 46 9 138 -23 167 -57 13 -15 32 -32 44 -38 12 -6 22 -17 22 -24 0
-20 88 -89 130 -101 29 -8 47 -24 74 -63 31 -45 36 -61 36 -107 0 -30 -5 -76
-11 -103 -10 -40 -9 -59 5 -106 9 -31 21 -59 26 -62 16 -10 24 26 12 46 -17
26 -15 29 12 29 64 0 70 -23 26 -90 -16 -25 -30 -49 -30 -53 0 -5 16 -27 36
-50 32 -38 136 -200 147 -230 3 -9 10 -8 28 2 21 13 25 11 50 -18 15 -18 30
-47 33 -64 9 -43 34 -67 70 -67 65 0 135 -75 150 -162 8 -46 27 -53 74 -28 20
11 46 20 57 20 12 0 30 7 41 15 10 8 26 15 35 15 9 0 21 11 27 25 15 33 15 33
-5 31 -15 -1 -18 6 -15 43 1 25 9 49 17 55 13 9 14 31 5 151 -5 77 -14 156
-20 175 -12 44 -129 254 -163 296 -39 46 -60 108 -53 150 7 33 3 39 -63 110
-107 115 -210 306 -265 493 -21 72 -20 129 4 225 11 43 20 88 20 100 0 12 9
38 20 59 11 20 20 45 20 55 0 10 20 38 45 62 31 31 45 52 45 71 0 19 6 29 23
33 26 7 71 47 109 98 16 20 52 62 82 93 44 47 55 65 61 103 10 67 37 121 82
165 31 30 53 40 104 51 l64 13 17 56 c21 70 50 114 108 162 55 46 114 74 157
75 27 0 37 7 58 40 14 22 25 41 25 42 0 2 -17 4 -37 6 -21 1 -41 6 -45 10 -4
4 -5 31 -2 59 6 50 7 51 46 57 30 5 43 13 56 38 9 17 27 42 40 56 12 14 22 36
22 49 0 13 7 26 16 30 13 5 11 10 -10 32 -14 15 -52 78 -84 141 l-59 115 -39
-3 c-56 -3 -67 3 -52 27 10 16 8 26 -7 55 -11 20 -23 36 -27 36 -5 0 -8 9 -8
20 0 11 5 20 11 20 7 0 9 11 4 33 -3 17 -7 48 -8 67 -2 27 -8 38 -30 48 -15 7
-27 16 -28 20 -1 4 -2 26 -3 49 -1 27 -12 56 -32 84 -26 38 -29 51 -30 123 -1
96 10 142 38 157 27 15 33 5 18 -31 -11 -26 -10 -33 4 -49 18 -19 22 -76 6
-86 -15 -10 -12 -35 5 -35 11 0 14 -11 12 -47 -2 -43 1 -49 30 -67 23 -15 33
-31 38 -58 4 -21 12 -41 17 -44 10 -7 8 16 -8 69 -9 30 29 19 59 -17 31 -40
33 -57 12 -116 -23 -64 -19 -160 7 -160 17 0 38 68 38 122 0 42 8 70 40 133
44 88 48 125 25 201 -11 37 -22 53 -46 64 -20 10 -37 30 -51 63 -11 26 -18 50
-15 53 3 4 29 0 56 -7 49 -12 51 -14 51 -48 l1 -36 19 24 c11 13 20 32 20 44
0 11 14 42 30 68 53 81 69 143 64 234 -8 120 -10 125 -44 125 -17 0 -30 4 -30
8 0 20 40 41 126 67 78 23 105 38 185 99 51 39 94 76 96 83 2 6 -6 14 -17 18
-16 5 -29 0 -48 -18 -41 -38 -127 -77 -170 -77 -28 0 -45 -7 -62 -25 -32 -34
-52 -33 -44 3 9 37 12 41 74 99 38 35 72 56 110 68 113 36 239 87 251 101 7 9
35 27 61 40 27 14 47 28 44 33 -8 12 23 51 41 51 8 0 17 -9 20 -20 5 -19 6
-19 37 4 17 13 48 30 69 37 37 13 39 15 33 48 -3 19 -15 44 -26 55 l-21 21 18
-32 c17 -30 17 -32 -1 -52 -13 -14 -31 -21 -56 -21 -33 0 -40 5 -76 58 -29 42
-46 58 -66 60 -44 5 -52 25 -33 75 16 41 16 47 1 76 -15 28 -15 36 -2 74 7 23
20 84 27 136 13 98 33 137 64 124 23 -8 85 28 96 55 5 12 19 26 32 31 31 12
35 23 32 99 -4 74 8 79 53 27 32 -35 45 -33 42 8 -4 39 0 47 19 47 14 0 18 -5
14 -19 -6 -23 16 -39 28 -20 12 19 11 52 0 44 -11 -6 -26 13 -17 22 3 4 17 0
31 -7 24 -13 28 -11 75 43 28 31 59 59 70 62 18 6 60 66 60 86 0 5 -4 15 -10
22 -60 74 -58 73 -80 59 -19 -11 -25 -11 -41 4 -10 9 -19 27 -19 38 0 53 -11
66 -51 66 -48 0 -43 -10 -114 225 -33 109 -60 184 -71 192 -9 7 -37 20 -61 29
l-43 17 -49 -42 c-57 -47 -86 -52 -103 -16 -13 29 -33 32 -47 8 -5 -10 -23
-58 -41 -108 -42 -117 -63 -290 -45 -371 5 -23 1 -43 -18 -80 -14 -27 -30 -68
-36 -91 -11 -40 -14 -42 -56 -49 -47 -7 -50 -11 -57 -74 -3 -23 -15 -28 -243
-88 -132 -34 -267 -66 -300 -71 -136 -19 -185 -52 -256 -168 -18 -31 -58 -82
-86 -114 -29 -33 -53 -62 -53 -66 0 -14 15 -30 37 -41 15 -9 22 -21 21 -44 0
-18 3 -47 7 -64 6 -29 4 -33 -27 -44 -19 -6 -46 -29 -63 -53 -26 -36 -38 -43
-76 -48 -25 -4 -60 -14 -78 -23 -25 -13 -36 -14 -53 -5 -45 24 -245 -13 -285
-53 -17 -17 -3 -62 28 -91 10 -10 19 -27 19 -38 0 -56 -143 -201 -305 -309
-60 -40 -137 -99 -171 -131 -44 -42 -71 -59 -100 -65 -21 -4 -56 -15 -76 -25
-47 -24 -74 -24 -105 1 -17 13 -33 17 -52 14 -18 -4 -43 2 -68 15 -22 11 -53
19 -69 18 -38 -3 -42 22 -9 61 16 19 25 42 25 64 0 22 7 42 20 53 11 10 20 28
20 39 0 31 17 51 42 51 21 0 23 5 26 65 2 49 -3 81 -22 135 -13 38 -32 95 -40
125 -16 55 -27 74 -57 98 -30 23 -80 -11 -114 -76 -36 -67 -54 -80 -89 -64
-22 10 -26 18 -26 52 0 34 4 42 25 52 18 8 29 24 37 56 6 24 17 46 24 49 21 8
19 146 -2 163 -28 24 -35 47 -18 64 14 14 13 19 -12 51 -16 22 -35 35 -49 35
-12 0 -49 13 -81 30 -32 16 -73 30 -89 30 -17 0 -41 7 -53 16 -21 14 -25 14
-57 -6 -27 -16 -35 -28 -35 -50 0 -16 7 -30 15 -34 24 -9 17 -24 -15 -31 -40
-9 -51 -32 -43 -95 5 -44 3 -55 -12 -66 -43 -32 -65 0 -40 59 18 45 18 47 1
47 -8 0 -17 -11 -20 -24 -3 -14 -20 -34 -36 -46 -22 -15 -30 -30 -30 -51 0
-18 -7 -33 -19 -41 -15 -9 -18 -19 -14 -40 3 -16 -2 -58 -12 -94 -10 -38 -15
-81 -12 -105 3 -22 1 -55 -4 -75 -9 -30 -6 -41 20 -88 17 -29 42 -83 56 -120
23 -62 24 -72 14 -139 -6 -40 -19 -92 -30 -116 -10 -24 -19 -49 -19 -56 0 -13
-61 -72 -103 -100 -23 -15 -28 -15 -62 2 -27 13 -42 29 -54 58 -9 23 -26 57
-38 77 -17 26 -23 51 -23 91 0 52 -6 94 -31 208 -8 38 -7 55 10 99 16 41 19
67 14 110 -4 42 -2 63 10 81 10 17 14 44 12 89 -2 57 2 77 37 158 53 124 46
143 -18 51 -29 -41 -70 -94 -92 -119 -33 -36 -43 -43 -53 -32 -11 10 -7 24 21
78 19 36 47 89 62 118 15 28 35 77 44 109 9 32 22 61 28 65 10 6 30 9 104 15
22 1 40 11 55 30 17 22 33 29 75 34 29 3 62 14 74 24 23 21 70 24 133 9 27 -6
51 -6 74 2 19 6 57 11 86 12 l53 1 -29 33 c-23 26 -29 42 -29 78 0 40 -2 45
-17 39 -50 -21 -124 -37 -147 -31 -23 6 -26 12 -26 46 0 22 -4 40 -9 40 -4 0
-30 -8 -57 -19 -27 -10 -80 -23 -118 -29 -49 -8 -76 -18 -95 -35 -42 -39 -62
-45 -141 -42 -69 3 -77 6 -95 31 -39 54 -61 71 -104 78 -31 5 -50 2 -71 -11
-16 -9 -33 -14 -37 -10 -17 18 79 156 120 170 25 9 21 27 -5 27 -53 -1 -145
-66 -196 -137 -26 -36 -92 -77 -142 -88 -19 -4 -48 -18 -64 -32 -15 -13 -42
-29 -60 -36 -32 -13 -120 -16 -132 -4 -4 3 3 22 15 42 11 20 21 38 21 41 0 12
-40 0 -115 -37 -58 -28 -94 -39 -117 -37 -44 4 -47 29 -6 52 49 29 119 94 154
146 48 69 69 84 202 140 75 32 122 58 122 67 0 11 -8 12 -37 7 -28 -5 -39 -3
-49 11 -11 15 -24 17 -83 13 -53 -4 -74 -2 -82 8 -17 20 -37 17 -71 -11 -38
-32 -102 -35 -118 -5 -6 11 -20 20 -30 20 -11 0 -25 9 -32 20 -9 13 -24 20
-45 20 -17 0 -60 15 -95 33 -85 45 -120 51 -151 27 -30 -24 -73 -26 -81 -5 -3
9 -18 15 -40 15 -19 0 -38 5 -41 10 -3 6 -21 10 -39 10 -46 0 -64 25 -80 110
-14 72 -27 92 -56 87 -10 -1 -17 -18 -20 -52 l-5 -50 -485 1 c-527 1 -803 12
-1205 49 -143 14 -312 29 -375 35 -437 40 -1242 159 -1663 246 -95 19 -293 60
-442 90 -298 61 -586 127 -770 179 -66 19 -192 52 -280 75 -87 22 -172 47
-187 55 -26 12 -30 12 -35 -1z"/>
<path d="M1302 7968 c2 -17 9 -22 26 -21 14 2 22 -3 22 -12 0 -8 5 -15 10 -15
6 0 10 6 10 13 0 6 3 22 6 35 6 20 3 22 -36 22 -37 0 -41 -2 -38 -22z"/>
<path d="M8124 7110 c-21 -16 -44 -30 -50 -30 -18 0 -37 -27 -25 -35 15 -9 61
18 100 59 42 44 29 47 -25 6z"/>
<path d="M12462 6674 c1 -9 9 -19 16 -22 9 -3 13 2 10 14 -1 9 -9 19 -16 22
-9 3 -13 -2 -10 -14z"/>
<path d="M9222 6608 c2 -17 11 -24 31 -26 25 -3 28 0 25 20 -2 17 -11 24 -31
26 -25 3 -28 0 -25 -20z"/>
<path d="M12305 5799 c-4 -6 -5 -13 -2 -16 8 -7 47 7 47 18 0 13 -37 11 -45
-2z"/>
<path d="M12445 5800 c-3 -5 1 -10 9 -10 9 0 16 5 16 10 0 6 -4 10 -9 10 -6 0
-13 -4 -16 -10z"/>
<path d="M830 3511 c0 -16 29 -33 52 -29 22 3 21 5 -9 21 -36 19 -43 21 -43 8z"/>
<path d="M760 3501 c0 -11 26 -22 34 -14 12 12 5 23 -14 23 -11 0 -20 -4 -20
-9z"/>
<path d="M1110 3252 c0 -12 41 -54 47 -48 9 9 -5 34 -26 46 -12 6 -21 7 -21 2z"/>
<path d="M1090 3088 c0 -9 5 -20 10 -23 13 -8 13 5 0 25 -8 13 -10 13 -10 -2z"/>
<path d="M1515 2190 c-13 -15 -31 -20 -67 -20 -27 0 -62 -7 -78 -15 -16 -9
-44 -14 -61 -13 -24 2 -36 -4 -53 -25 -73 -95 -68 -92 -142 -89 -95 2 -105 -6
-75 -60 45 -82 50 -93 54 -132 3 -21 10 -42 17 -46 11 -7 48 -97 53 -130 3
-23 -28 -23 -79 -1 -35 16 -45 25 -41 38 13 48 13 48 -27 51 -21 2 -43 -1 -49
-7 -6 -6 -42 -11 -79 -11 -77 0 -84 -9 -47 -62 17 -23 20 -38 15 -69 -5 -34
-3 -43 18 -64 16 -16 36 -25 56 -25 17 0 45 -7 61 -16 23 -11 44 -14 85 -8 62
7 61 10 39 -80 -16 -69 -27 -79 -76 -72 -23 4 -42 0 -55 -9 -27 -20 -47 -18
-62 5 -18 29 -48 25 -74 -11 -13 -17 -44 -46 -69 -64 -54 -38 -73 -93 -45
-124 20 -22 20 -40 0 -62 -14 -16 -14 -20 0 -48 9 -16 16 -39 16 -49 0 -33 26
-45 80 -39 48 6 50 5 50 -18 0 -13 3 -30 6 -38 3 -8 -1 -21 -10 -29 -16 -17
-25 -88 -11 -88 6 0 25 3 44 6 26 5 37 3 46 -10 7 -9 19 -16 28 -16 9 0 18
-12 22 -30 7 -30 25 -42 25 -16 0 24 20 29 40 11 11 -10 26 -14 38 -10 34 10
33 -9 -5 -80 -23 -44 -47 -74 -69 -87 -18 -11 -36 -27 -39 -36 -3 -12 -24 -21
-66 -29 -33 -6 -70 -20 -81 -30 -14 -12 -36 -18 -78 -18 -43 0 -66 -5 -87 -21
-40 -29 -89 -44 -123 -37 -40 8 -80 -4 -80 -23 0 -13 7 -15 30 -11 16 4 42 2
59 -4 22 -8 36 -7 53 2 33 18 86 31 143 35 28 2 66 5 85 7 19 1 41 6 48 11 7
4 28 5 46 2 29 -6 34 -3 47 26 11 26 23 35 64 46 100 27 289 136 319 184 8 13
6 22 -9 38 -25 27 -13 48 41 74 24 11 52 38 74 69 57 83 137 122 169 83 15
-18 -1 -30 -30 -21 -24 8 -69 -19 -69 -41 0 -8 -9 -32 -19 -53 -16 -30 -17
-41 -8 -50 9 -9 7 -16 -11 -29 -27 -21 -20 -32 19 -32 18 0 44 14 75 41 43 37
50 40 88 34 22 -4 48 -13 57 -21 13 -12 18 -11 37 9 26 27 28 37 7 37 -8 0
-15 5 -15 11 0 7 -8 18 -17 25 -17 13 -16 15 6 35 37 30 82 22 101 -18 21 -44
115 -93 180 -93 27 0 68 -9 95 -21 36 -16 59 -20 92 -15 42 5 43 5 43 -23 0
-23 8 -32 50 -55 28 -15 71 -45 96 -67 25 -21 49 -39 55 -39 5 0 9 -9 9 -20 0
-10 11 -36 25 -56 14 -20 25 -45 25 -55 0 -10 8 -23 19 -28 10 -6 29 -27 41
-48 21 -35 23 -36 35 -19 13 17 14 17 21 -8 7 -28 14 -32 31 -15 9 9 14 1 22
-29 6 -22 8 -47 5 -56 -4 -9 0 -18 10 -22 8 -3 25 -22 37 -42 17 -28 24 -33
27 -20 4 21 23 23 41 6 11 -11 13 -5 8 34 -2 26 -2 49 1 52 8 9 46 -15 74 -48
26 -30 27 -31 42 -11 16 21 20 72 10 123 -6 27 -15 34 -76 58 -40 16 -74 36
-80 48 -32 62 -141 216 -152 216 -14 0 -68 64 -79 93 -16 42 -81 28 -98 -22
-6 -15 -20 -33 -32 -38 -20 -9 -29 -4 -78 51 -30 33 -58 69 -62 79 -6 15 -14
17 -56 11 -35 -4 -51 -3 -57 7 -4 7 -7 275 -5 595 l3 583 -43 28 c-35 23 -54
28 -103 28 -34 0 -71 6 -84 13 -12 7 -27 10 -33 7 -5 -4 -28 5 -51 20 -22 15
-56 29 -76 31 -76 10 -83 14 -98 50 -14 34 -17 36 -50 30 -26 -5 -34 -4 -34 8
0 15 -59 66 -77 66 -5 0 -18 -9 -28 -20z"/>
<path d="M2455 1860 c132 -132 242 -240 245 -240 3 0 -103 108 -235 240 -132
132 -242 240 -245 240 -3 0 103 -108 235 -240z"/>
<path d="M516 1564 c-9 -23 -8 -24 18 -34 14 -5 33 -22 43 -37 22 -35 35 -45
46 -34 14 14 -15 60 -50 81 -18 10 -33 24 -33 30 0 16 -17 12 -24 -6z"/>
<path d="M7810 1540 c0 -12 48 -25 58 -16 8 9 -18 26 -40 26 -10 0 -18 -4 -18
-10z"/>
<path d="M2914 1384 c7 -15 13 -19 18 -11 12 18 10 24 -10 29 -16 5 -17 2 -8
-18z"/>
<path d="M4101 1388 c3 -2 38 -34 79 -73 l75 -70 -70 73 c-38 39 -74 72 -79
72 -5 0 -7 -1 -5 -2z"/>
<path d="M280 1241 c0 -6 4 -13 10 -16 6 -3 7 1 4 9 -7 18 -14 21 -14 7z"/>
<path d="M3403 1135 c-34 -24 -29 -53 12 -71 19 -7 41 -14 48 -14 21 0 43 58
30 79 -14 22 -63 25 -90 6z"/>
<path d="M3246 1055 c-3 -9 0 -15 8 -15 8 0 16 7 20 15 3 9 0 15 -8 15 -8 0
-16 -7 -20 -15z"/>
<path d="M580 1048 c0 -20 42 -58 63 -58 18 0 40 40 28 52 -3 4 -25 10 -48 14
-34 5 -43 4 -43 -8z"/>
<path d="M4630 855 c96 -96 177 -175 180 -175 3 0 -74 79 -170 175 -96 96
-177 175 -180 175 -3 0 74 -79 170 -175z"/>
<path d="M3838 979 c-44 -23 -45 -30 -17 -76 16 -25 27 -33 41 -30 11 3 33 1
49 -5 43 -15 60 3 32 34 -11 13 -30 40 -42 61 -13 20 -23 37 -24 37 -1 -1 -19
-10 -39 -21z"/>
<path d="M4085 830 c-7 -12 52 -30 96 -30 32 0 59 14 48 24 -9 8 -140 13 -144
6z"/>
<path d="M1845 780 c-3 -5 -2 -10 4 -10 5 0 13 5 16 10 3 6 2 10 -4 10 -5 0
-13 -4 -16 -10z"/>
<path d="M4253 774 c-8 -20 48 -97 79 -108 33 -12 112 13 116 36 2 12 -9 23
-40 37 -133 58 -145 61 -155 35z"/>
<path d="M4150 747 c0 -24 25 -48 43 -41 20 7 22 25 5 42 -16 16 -48 15 -48
-1z"/>
<path d="M2930 616 c0 -2 8 -10 18 -17 15 -13 16 -12 3 4 -13 16 -21 21 -21
13z"/>
<path d="M1343 534 c-79 -53 -82 -57 -76 -87 6 -38 28 -58 51 -49 10 3 38 19
64 34 43 27 46 31 41 61 -4 24 0 37 16 51 16 15 18 22 10 33 -6 7 -14 13 -18
13 -3 -1 -43 -26 -88 -56z"/>
<path d="M2970 566 c0 -2 8 -10 18 -17 15 -13 16 -12 3 4 -13 16 -21 21 -21
13z"/>
<path d="M4484 517 c6 -40 4 -47 -25 -75 l-31 -30 23 -31 c18 -24 24 -50 29
-108 4 -69 8 -78 33 -97 l28 -21 46 53 c31 36 52 52 69 52 33 0 84 23 112 50
l24 22 -36 30 c-20 16 -36 36 -36 43 0 29 -55 76 -136 114 -47 23 -90 41 -96
41 -7 0 -8 -16 -4 -43z"/>
<path d="M11010 508 c-12 -22 -12 -22 6 -6 10 10 15 20 12 24 -4 3 -12 -5 -18
-18z"/>
<path d="M3050 466 c0 -2 8 -10 18 -17 15 -13 16 -12 3 4 -13 16 -21 21 -21
13z"/>
<path d="M3130 366 c0 -2 8 -10 18 -17 15 -13 16 -12 3 4 -13 16 -21 21 -21
13z"/>
<path d="M10745 356 c-11 -8 -17 -17 -13 -21 9 -9 64 9 61 21 -3 15 -27 15
-48 0z"/>
<path d="M787 323 c-4 -3 5 -12 20 -20 32 -16 44 -8 17 12 -22 16 -28 18 -37
8z"/>
<path d="M285 300 c-3 -11 -11 -20 -16 -20 -5 0 -9 -5 -9 -11 0 -8 13 -10 37
-6 46 8 60 21 43 42 -18 21 -47 19 -55 -5z"/>
<path d="M141 283 c-40 -20 -25 -29 22 -14 19 7 42 8 52 5 13 -5 16 -3 13 7
-7 21 -48 22 -87 2z"/>
</g>
</svg>
